<svg width="29" height="28" viewBox="0 0 29 28" fill="none" xmlns="http://www.w3.org/2000/svg">
<path fill-rule="evenodd" clip-rule="evenodd" d="M0 14.3547C0 20.6967 4.1543 26.0765 9.9162 27.9746C10.6417 28.1067 10.906 27.6635 10.906 27.2828C10.906 26.9418 10.8936 26.0394 10.8865 24.8419C6.85322 25.709 6.00224 22.9174 6.00224 22.9174C5.34264 21.2589 4.39197 20.8175 4.39197 20.8175C3.07545 19.9274 4.49167 19.9451 4.49167 19.9451C5.94705 20.0464 6.71258 21.4246 6.71258 21.4246C8.00595 23.6179 10.1067 22.9843 10.9327 22.6169C11.0645 21.6898 11.4392 21.0571 11.8532 20.6985C8.63351 20.3363 5.24829 19.1044 5.24829 13.604C5.24829 12.0372 5.81353 10.755 6.74106 9.75224C6.59152 9.38918 6.09393 7.92903 6.88348 5.95338C6.88348 5.95338 8.10031 5.56742 10.8704 7.42499C12.0267 7.10599 13.2676 6.94738 14.5004 6.94121C15.7324 6.94738 16.9724 7.10599 18.1305 7.42499C20.8988 5.56742 22.1138 5.95338 22.1138 5.95338C22.9052 7.92903 22.4076 9.38918 22.2589 9.75224C23.1882 10.755 23.749 12.0372 23.749 13.604C23.749 19.1185 20.3585 20.3319 17.129 20.687C17.6489 21.1303 18.1126 22.0062 18.1126 23.3447C18.1126 25.264 18.0948 26.8123 18.0948 27.2828C18.0948 27.667 18.3566 28.1138 19.0918 27.9737C24.8493 26.0712 29 20.695 29 14.3547C29 6.42659 22.5073 0 14.4987 0C6.49271 0 0 6.42659 0 14.3547Z" fill="#FFFFFE"/>
</svg>
