<?xml version="1.0" standalone="no"?>
<!DOCTYPE svg PUBLIC "-//W3C//DTD SVG 20010904//EN"
 "http://www.w3.org/TR/2001/REC-SVG-20010904/DTD/svg10.dtd">
<svg version="1.0" xmlns="http://www.w3.org/2000/svg"
 width="700.000000pt" height="700.000000pt" viewBox="0 0 700.000000 700.000000"
 preserveAspectRatio="xMidYMid meet">
<metadata>
Created by potrace 1.11, written by Peter Selinger 2001-2013
</metadata>
<g transform="translate(0.000000,700.000000) scale(0.100000,-0.100000)"
fill="#000000" stroke="none">
<path d="M3558 5542 l-58 -3 0 -2039 0 -2040 40 -1 c22 0 65 0 95 0 30 0 78 0
105 0 l50 1 0 2043 0 2042 -87 0 c-49 0 -114 -1 -145 -3z"/>
<path d="M2919 4952 c-3 -22 -4 -2889 -1 -2899 3 -9 44 -12 148 -11 l144 0 0
1458 0 1458 -145 1 c-80 0 -145 -3 -146 -7z"/>
<path d="M4088 4957 c-3 -4 -6 -2874 -3 -2893 4 -20 11 -21 145 -22 77 -1 141
1 141 5 1 5 2 661 3 1460 l1 1452 -142 0 c-79 0 -144 -1 -145 -2z"/>
<path d="M2335 4370 c-1 -3 -2 -462 -1 -1020 l1 -1015 145 -1 145 -1 0 1019
c0 560 -2 1019 -5 1019 -16 4 -282 3 -285 -1z"/>
<path d="M5250 3354 l0 -1022 145 1 c126 0 145 2 145 16 5 150 0 2015 -5 2019
-4 4 -69 7 -146 7 l-139 1 0 -1022z"/>
<path d="M1171 4075 c-5 -7 -7 -1379 -2 -1440 1 -8 240 -13 283 -6 9 1 9 1451
0 1452 -43 7 -275 2 -281 -6z"/>
<path d="M4671 4070 c-5 -11 -7 -1385 -2 -1435 1 -7 54 -10 144 -10 l142 0 1
723 c2 519 -1 724 -9 729 -6 4 -69 7 -140 7 -105 1 -130 -2 -136 -14z"/>
<path d="M587 3783 c-2 -5 -4 -200 -4 -435 0 -305 3 -428 11 -429 65 -6 269
-2 274 6 4 6 7 202 7 438 l0 427 -142 0 c-78 0 -144 -3 -146 -7z"/>
<path d="M1750 3355 c0 -239 3 -435 8 -436 36 -4 266 -3 274 2 7 5 10 151 10
430 -1 233 -1 427 -2 432 0 4 -65 7 -145 7 l-145 0 0 -435z"/>
<path d="M5833 3355 c0 -301 4 -435 11 -437 9 -3 223 -2 266 1 13 1 15 55 15
436 l0 435 -146 0 -146 0 0 -435z"/>
<path d="M0 3355 l0 -145 145 0 145 0 0 145 0 145 -145 0 -145 0 0 -145z"/>
<path d="M6419 3498 c0 -2 -1 -67 -2 -146 l-2 -142 148 0 147 0 0 145 0 145
-145 0 c-80 0 -145 -1 -146 -2z"/>
</g>
</svg>
